Hanif_Deep_2_5_grf.mot
version=1
nRows=32
nColumns=19
inDegrees=yes
endheader
time	right_ground_force_vx	right_ground_force_vy	right_ground_force_vz	right_ground_force_px	right_ground_force_py	right_ground_force_pz	right_ground_torque_x	right_ground_torque_y	right_ground_torque_z	left_ground_force_vx	left_ground_force_vy	left_ground_force_vz	left_ground_force_px	left_ground_force_py	left_ground_force_pz	left_ground_torque_x	left_ground_torque_y	left_ground_torque_z
3.540000	-7.400880	280.242000	48.935600	0.223251	0.000000	-1.425040	-22.745200	0.447275	6.897430	2.375200	286.937000	-51.563800	0.227216	0.000000	-0.968315	18.696300	-4.188660	8.786310
3.545000	-6.862570	274.781000	48.584800	0.223780	0.000000	-1.425730	-22.107700	0.367418	6.900880	3.115120	283.026000	-51.811100	0.226147	0.000000	-0.967710	18.256600	-4.110660	8.363850
3.550000	-6.593840	270.432000	48.570400	0.223688	0.000000	-1.425490	-21.820200	0.288357	6.759780	3.924060	278.851000	-51.111500	0.226140	0.000000	-0.967803	17.997700	-4.087240	8.236670
3.555000	-5.612710	262.967000	48.571100	0.223564	0.000000	-1.424580	-21.452700	0.308461	6.549300	4.755250	273.345000	-51.207900	0.225225	0.000000	-0.967212	17.465900	-3.956150	7.820960
3.560000	-5.352420	259.500000	48.439400	0.223034	0.000000	-1.424520	-21.180300	0.252948	6.314330	5.134960	269.681000	-50.519900	0.225450	0.000000	-0.966844	17.125200	-3.887480	7.770990
3.565000	-4.759070	254.904000	48.115100	0.222848	0.000000	-1.424940	-20.695000	0.222045	6.146240	5.088610	261.599000	-50.459300	0.225157	0.000000	-0.967939	16.895200	-3.833930	7.501720
3.570000	-4.222680	250.531000	47.974800	0.222484	0.000000	-1.423870	-20.606200	0.287677	5.960910	5.221710	255.942000	-50.395300	0.225616	0.000000	-0.968546	16.681500	-3.684450	7.468580
3.575000	-3.931540	245.699000	47.539700	0.222528	0.000000	-1.424230	-20.117100	0.292250	5.860980	5.401420	251.680000	-50.289400	0.225172	0.000000	-0.968053	16.277100	-3.527670	7.222910
3.580000	-3.285440	240.974000	47.060300	0.222461	0.000000	-1.424090	-19.760300	0.254498	5.721110	5.023340	245.686000	-50.087700	0.225743	0.000000	-0.968378	15.971300	-3.495940	7.233400
3.585000	-2.979610	235.749000	47.138300	0.222867	0.000000	-1.423180	-19.545000	0.294618	5.714760	4.794700	240.072000	-49.537500	0.226133	0.000000	-0.967494	15.397600	-3.299350	7.158050
3.590000	-2.786240	233.524000	47.098300	0.223062	0.000000	-1.422670	-19.476900	0.206817	5.693200	4.296950	236.406000	-49.186300	0.225994	0.000000	-0.968065	15.304300	-3.258750	7.031100
3.595000	-2.832270	230.289000	46.883300	0.223083	0.000000	-1.422350	-19.282500	0.179894	5.620980	4.361420	230.773000	-49.160300	0.225486	0.000000	-0.968514	15.040300	-3.197780	6.768640
3.600000	-2.791690	225.613000	47.186700	0.223437	0.000000	-1.423040	-18.737500	0.242551	5.618090	4.222380	226.244000	-48.644400	0.225203	0.000000	-0.968109	14.653500	-3.183060	6.590900
3.605000	-2.705120	221.271000	47.028300	0.222054	0.000000	-1.423120	-18.358400	0.250245	5.201220	3.625410	220.979000	-48.473300	0.225136	0.000000	-0.968004	14.298800	-3.023440	6.433420
3.610000	-2.156680	217.553000	47.436000	0.222713	0.000000	-1.423010	-18.069600	0.203872	5.259600	3.726070	214.482000	-48.535700	0.225268	0.000000	-0.968940	14.073900	-2.994060	6.319040
3.615000	-1.974150	213.470000	47.548200	0.221829	0.000000	-1.422820	-17.768600	0.120814	4.954450	3.401670	210.697000	-48.222800	0.225003	0.000000	-0.968781	13.796000	-2.973930	6.173420
3.620000	-1.035270	210.498000	48.129300	0.222398	0.000000	-1.423190	-17.438100	0.216764	5.030340	2.837710	207.902000	-47.900000	0.225372	0.000000	-0.968430	13.549500	-2.884800	6.176780
3.625000	-0.983012	210.099000	48.760500	0.222528	0.000000	-1.422670	-17.513300	0.163769	5.045110	2.636420	205.325000	-47.859900	0.225559	0.000000	-0.969497	13.603400	-2.845690	6.155580
3.630000	-0.521859	209.886000	48.968200	0.222344	0.000000	-1.424370	-17.135500	0.127478	4.984650	2.619550	203.754000	-47.492600	0.226508	0.000000	-0.968940	13.386700	-2.719640	6.288090
3.635000	0.000592	206.766000	49.644600	0.220873	0.000000	-1.423400	-17.078900	0.152509	4.601210	2.225830	202.040000	-47.542500	0.226540	0.000000	-0.969064	13.306200	-2.634630	6.244470
3.640000	0.616015	205.259000	49.662800	0.221180	0.000000	-1.423600	-16.910700	0.135086	4.622210	1.502010	199.109000	-47.310500	0.225845	0.000000	-0.968672	13.048200	-2.540580	6.016800
3.645000	0.715398	204.291000	49.753300	0.221363	0.000000	-1.424570	-16.630800	0.177680	4.652140	1.928970	197.163000	-47.231100	0.226064	0.000000	-0.968921	12.962700	-2.411330	5.981030
3.650000	0.190929	200.969000	49.524600	0.221604	0.000000	-1.424420	-16.394900	0.059486	4.616270	1.142900	194.583000	-47.323900	0.226262	0.000000	-0.968804	12.784400	-2.225740	5.935380
3.655000	0.002059	197.974000	48.766400	0.220805	0.000000	-1.423600	-16.312200	0.028394	4.375690	0.620330	193.098000	-47.551300	0.225713	0.000000	-0.967904	12.522000	-2.194120	5.796700
3.660000	-0.628183	193.704000	48.715200	0.221829	0.000000	-1.424000	-15.887800	-0.054211	4.495210	0.011132	191.019000	-47.652400	0.225837	0.000000	-0.968421	12.496400	-2.121700	5.771570
3.665000	-0.892270	191.217000	48.475400	0.221441	0.000000	-1.424160	-15.653400	-0.135531	4.347620	-0.135206	188.698000	-47.143900	0.224443	0.000000	-0.966881	12.056500	-2.019360	5.406930
3.670000	-1.464610	186.435000	47.402200	0.221409	0.000000	-1.425590	-14.998100	-0.215423	4.224540	-0.947746	184.437000	-46.394600	0.224745	0.000000	-0.968341	12.067100	-1.851380	5.334030
3.675000	-1.381460	179.980000	46.695900	0.220913	0.000000	-1.425020	-14.580000	-0.301166	3.968100	-1.153850	181.253000	-45.874500	0.224589	0.000000	-0.967333	11.679600	-1.809510	5.219040
3.680000	-1.469600	178.126000	46.453800	0.220744	0.000000	-1.425940	-14.266600	-0.318825	3.893880	-2.035950	176.416000	-45.268900	0.224261	0.000000	-0.967358	11.387900	-1.728430	5.039020
3.685000	-1.311610	174.802000	46.050900	0.220943	0.000000	-1.424250	-14.296300	-0.320422	3.858860	-2.376080	173.458000	-44.265500	0.223663	0.000000	-0.966765	11.099300	-1.633900	4.827530
3.690000	-1.469760	174.013000	45.605300	0.220757	0.000000	-1.424590	-14.172200	-0.452943	3.772770	-3.096590	167.614000	-43.610100	0.223247	0.000000	-0.968183	10.977100	-1.578770	4.623620
3.695000	-1.257220	171.663000	45.054700	0.220945	0.000000	-1.425740	-13.780500	-0.566701	3.720810	-3.675530	162.132000	-42.296600	0.222910	0.000000	-0.967731	10.556000	-1.487260	4.417310
